<mxfile host="65bd71144e">
    <diagram id="1EBe2tYzhHy3d0gjnNcR" name="Page-1">
        <mxGraphModel dx="1960" dy="1223" grid="1" gridSize="10" guides="1" tooltips="1" connect="1" arrows="1" fold="1" page="1" pageScale="1" pageWidth="850" pageHeight="1100" math="0" shadow="0">
            <root>
                <mxCell id="0"/>
                <mxCell id="1" parent="0"/>
                <mxCell id="42" value="" style="rounded=0;whiteSpace=wrap;html=1;labelBackgroundColor=none;fontSize=18;direction=south;fillColor=#647687;strokeColor=#314354;fontColor=#ffffff;" parent="1" vertex="1">
                    <mxGeometry y="10" width="440" height="670" as="geometry"/>
                </mxCell>
                <mxCell id="41" value="" style="rounded=0;whiteSpace=wrap;html=1;labelBackgroundColor=none;fontSize=18;fontColor=#ffffff;direction=south;fillColor=#6d8764;strokeColor=#3A5431;" parent="1" vertex="1">
                    <mxGeometry x="440" y="10" width="390" height="670" as="geometry"/>
                </mxCell>
                <mxCell id="36" value="" style="endArrow=none;html=1;labelBackgroundColor=#FFFFFF;fontSize=18;fontColor=#F7F7F7;" parent="1" edge="1">
                    <mxGeometry width="50" height="50" relative="1" as="geometry">
                        <mxPoint x="440" y="10" as="sourcePoint"/>
                        <mxPoint x="440" y="570" as="targetPoint"/>
                    </mxGeometry>
                </mxCell>
                <mxCell id="11" value="interacts" style="edgeStyle=none;html=1;labelBackgroundColor=none;" parent="1" source="2" target="3" edge="1">
                    <mxGeometry x="-0.4268" y="23" relative="1" as="geometry">
                        <mxPoint as="offset"/>
                    </mxGeometry>
                </mxCell>
                <mxCell id="32" value="" style="edgeStyle=none;html=1;labelBackgroundColor=#FFFFFF;fontSize=18;fontColor=#F7F7F7;" parent="1" source="2" target="3" edge="1">
                    <mxGeometry relative="1" as="geometry"/>
                </mxCell>
                <mxCell id="33" value="" style="edgeStyle=none;html=1;labelBackgroundColor=#FFFFFF;fontSize=18;fontColor=#F7F7F7;" parent="1" source="2" target="3" edge="1">
                    <mxGeometry relative="1" as="geometry"/>
                </mxCell>
                <mxCell id="35" value="" style="edgeStyle=none;html=1;labelBackgroundColor=#FFFFFF;fontSize=18;fontColor=#F7F7F7;" parent="1" source="2" target="3" edge="1">
                    <mxGeometry relative="1" as="geometry"/>
                </mxCell>
                <mxCell id="2" value="Actor" style="shape=umlActor;verticalLabelPosition=bottom;verticalAlign=top;html=1;outlineConnect=0;fillColor=none;" parent="1" vertex="1">
                    <mxGeometry x="30" y="70" width="30" height="60" as="geometry"/>
                </mxCell>
                <mxCell id="8" value="" style="edgeStyle=none;html=1;" parent="1" source="3" target="7" edge="1">
                    <mxGeometry relative="1" as="geometry"/>
                </mxCell>
                <mxCell id="3" value="Originator Contract" style="rounded=1;whiteSpace=wrap;html=1;fillColor=#1ba1e2;fontColor=#ffffff;strokeColor=#006EAF;" parent="1" vertex="1">
                    <mxGeometry x="60" y="160" width="170" height="80" as="geometry"/>
                </mxCell>
                <mxCell id="6" value="encodes Foo()" style="shape=callout;whiteSpace=wrap;html=1;perimeter=calloutPerimeter;" parent="1" vertex="1">
                    <mxGeometry x="160" y="100" width="120" height="80" as="geometry"/>
                </mxCell>
                <mxCell id="13" value="" style="edgeStyle=none;html=1;entryX=0.101;entryY=-0.034;entryDx=0;entryDy=0;entryPerimeter=0;" parent="1" source="7" target="12" edge="1">
                    <mxGeometry relative="1" as="geometry"/>
                </mxCell>
                <mxCell id="7" value="Foreign Bridge Contract" style="rounded=1;whiteSpace=wrap;html=1;fillColor=#1ba1e2;strokeColor=#006EAF;fontColor=#ffffff;" parent="1" vertex="1">
                    <mxGeometry x="60" y="430" width="165" height="100" as="geometry"/>
                </mxCell>
                <mxCell id="9" value="requireToPassMessage(_target_contract_addr, encoded(Foo()), _gas)" style="shape=callout;whiteSpace=wrap;html=1;perimeter=calloutPerimeter;" parent="1" vertex="1">
                    <mxGeometry y="370" width="350" height="70" as="geometry"/>
                </mxCell>
                <mxCell id="12" value="" style="shape=process;whiteSpace=wrap;html=1;backgroundOutline=1;fillColor=#1ba1e2;strokeColor=#006EAF;fontColor=#ffffff;rounded=1;rotation=-90;" parent="1" vertex="1">
                    <mxGeometry x="237.5" y="252.5" width="415" height="135" as="geometry"/>
                </mxCell>
                <mxCell id="14" value="" style="shape=mxgraph.signs.healthcare.eye;html=1;pointerEvents=1;fillColor=#000000;strokeColor=none;verticalLabelPosition=bottom;verticalAlign=top;align=center;" parent="1" vertex="1">
                    <mxGeometry x="410" y="210" width="99" height="55" as="geometry"/>
                </mxCell>
                <mxCell id="15" value="" style="shape=mxgraph.signs.healthcare.eye;html=1;pointerEvents=1;fillColor=#000000;strokeColor=none;verticalLabelPosition=bottom;verticalAlign=top;align=center;" parent="1" vertex="1">
                    <mxGeometry x="410" y="155" width="99" height="55" as="geometry"/>
                </mxCell>
                <mxCell id="16" value="" style="shape=mxgraph.signs.healthcare.eye;html=1;pointerEvents=1;fillColor=#000000;strokeColor=none;verticalLabelPosition=bottom;verticalAlign=top;align=center;" parent="1" vertex="1">
                    <mxGeometry x="410" y="262.5" width="99" height="55" as="geometry"/>
                </mxCell>
                <mxCell id="17" value="" style="shape=mxgraph.signs.healthcare.eye;html=1;pointerEvents=1;fillColor=#000000;strokeColor=none;verticalLabelPosition=bottom;verticalAlign=top;align=center;" parent="1" vertex="1">
                    <mxGeometry x="410" y="317.5" width="99" height="55" as="geometry"/>
                </mxCell>
                <mxCell id="18" value="" style="shape=mxgraph.signs.healthcare.eye;html=1;pointerEvents=1;fillColor=#000000;strokeColor=none;verticalLabelPosition=bottom;verticalAlign=top;align=center;" parent="1" vertex="1">
                    <mxGeometry x="410" y="425" width="99" height="55" as="geometry"/>
                </mxCell>
                <mxCell id="19" value="" style="shape=mxgraph.signs.healthcare.eye;html=1;pointerEvents=1;fillColor=#000000;strokeColor=none;verticalLabelPosition=bottom;verticalAlign=top;align=center;" parent="1" vertex="1">
                    <mxGeometry x="410" y="370" width="99" height="55" as="geometry"/>
                </mxCell>
                <mxCell id="21" value="" style="sketch=0;html=1;aspect=fixed;strokeColor=#666666;shadow=0;align=center;verticalAlign=top;fillColor=#f5f5f5;shape=mxgraph.gcp2.check;fontColor=#333333;" parent="1" vertex="1">
                    <mxGeometry x="372" y="160" width="53.13" height="42.5" as="geometry"/>
                </mxCell>
                <mxCell id="22" value="" style="sketch=0;html=1;aspect=fixed;strokeColor=#666666;shadow=0;align=center;verticalAlign=top;fillColor=#f5f5f5;shape=mxgraph.gcp2.check;fontColor=#333333;" parent="1" vertex="1">
                    <mxGeometry x="372" y="210" width="53.13" height="42.5" as="geometry"/>
                </mxCell>
                <mxCell id="23" value="" style="sketch=0;html=1;aspect=fixed;strokeColor=#666666;shadow=0;align=center;verticalAlign=top;fillColor=#f5f5f5;shape=mxgraph.gcp2.check;fontColor=#333333;" parent="1" vertex="1">
                    <mxGeometry x="372" y="262.5" width="53.13" height="42.5" as="geometry"/>
                </mxCell>
                <mxCell id="24" value="" style="sketch=0;html=1;aspect=fixed;strokeColor=#666666;shadow=0;align=center;verticalAlign=top;fillColor=#f5f5f5;shape=mxgraph.gcp2.check;fontColor=#333333;" parent="1" vertex="1">
                    <mxGeometry x="372" y="317.5" width="53.13" height="42.5" as="geometry"/>
                </mxCell>
                <mxCell id="25" value="" style="shape=flexArrow;endArrow=classic;html=1;fillColor=#f5f5f5;strokeColor=#666666;" parent="1" edge="1">
                    <mxGeometry x="-0.2941" y="-20" width="50" height="50" relative="1" as="geometry">
                        <mxPoint x="380" y="489.5" as="sourcePoint"/>
                        <mxPoint x="550" y="489.5" as="targetPoint"/>
                        <Array as="points"/>
                        <mxPoint as="offset"/>
                    </mxGeometry>
                </mxCell>
                <mxCell id="27" value="Relay Confimed" style="edgeLabel;html=1;align=center;verticalAlign=middle;resizable=0;points=[];fontSize=18;fontColor=#F7F7F7;labelBackgroundColor=none;" parent="25" vertex="1" connectable="0">
                    <mxGeometry x="0.2058" y="1" relative="1" as="geometry">
                        <mxPoint x="-37" y="22" as="offset"/>
                    </mxGeometry>
                </mxCell>
                <mxCell id="26" value="&lt;p style=&quot;line-height: 1.7&quot;&gt;AMB Oracles&lt;/p&gt;" style="rounded=0;whiteSpace=wrap;html=1;fontColor=#ffffff;fillColor=#1ba1e2;strokeColor=#006EAF;" parent="1" vertex="1">
                    <mxGeometry x="380" y="95" width="130" height="60" as="geometry"/>
                </mxCell>
                <mxCell id="31" value="" style="edgeStyle=none;html=1;labelBackgroundColor=#FFFFFF;fontSize=18;fontColor=#F7F7F7;" parent="1" source="28" target="30" edge="1">
                    <mxGeometry relative="1" as="geometry"/>
                </mxCell>
                <mxCell id="28" value="Home Bridge Contract" style="rounded=1;whiteSpace=wrap;html=1;fillColor=#1ba1e2;strokeColor=#006EAF;fontColor=#ffffff;" parent="1" vertex="1">
                    <mxGeometry x="560" y="440" width="165" height="100" as="geometry"/>
                </mxCell>
                <mxCell id="29" value="decodes and calls target_contract.Foo()" style="shape=callout;whiteSpace=wrap;html=1;perimeter=calloutPerimeter;rotation=0;base=24;position2=0.08;size=48;position=0.13;" parent="1" vertex="1">
                    <mxGeometry x="650" y="347.5" width="120" height="100" as="geometry"/>
                </mxCell>
                <mxCell id="30" value="Target Contract" style="rounded=1;whiteSpace=wrap;html=1;fillColor=#1ba1e2;strokeColor=#006EAF;fontColor=#ffffff;" parent="1" vertex="1">
                    <mxGeometry x="560" y="233.75" width="165" height="100" as="geometry"/>
                </mxCell>
                <mxCell id="38" value="Ethereum" style="text;html=1;align=center;verticalAlign=middle;resizable=0;points=[];autosize=1;strokeColor=none;fillColor=none;fontSize=18;fontColor=#F7F7F7;" parent="1" vertex="1">
                    <mxGeometry x="75" y="45" width="90" height="30" as="geometry"/>
                </mxCell>
                <mxCell id="39" value="Sidechain" style="text;html=1;align=center;verticalAlign=middle;resizable=0;points=[];autosize=1;strokeColor=none;fillColor=none;fontSize=18;fontColor=#F7F7F7;" parent="1" vertex="1">
                    <mxGeometry x="560" y="45" width="90" height="30" as="geometry"/>
                </mxCell>
            </root>
        </mxGraphModel>
    </diagram>
</mxfile>